<svg width="118" height="136" viewBox="0 0 118 136" fill="none" xmlns="http://www.w3.org/2000/svg">
<path d="M11.2051 130H8.78809L5.57129 124.744L2.32812 130H0.078125L4.34082 123.338L0.350586 117.15H2.68848L5.65918 122.011L8.62988 117.15H10.8975L6.88086 123.373L11.2051 130ZM16.5488 126.054V124.296H21.0664V126.054H16.5488ZM37.5547 130H35.1377L31.9209 124.744L28.6777 130H26.4277L30.6904 123.338L26.7002 117.15H29.0381L32.0088 122.011L34.9795 117.15H37.2471L33.2305 123.373L37.5547 130ZM37.5898 120.279H39.8398L41.8174 125.79C42.1162 126.575 42.3154 127.313 42.415 128.005H42.4854C42.5381 127.683 42.6348 127.293 42.7754 126.836C42.916 126.373 43.6602 124.188 45.0078 120.279H47.2402L43.083 131.292C42.3271 133.313 41.0674 134.324 39.3037 134.324C38.8467 134.324 38.4014 134.274 37.9678 134.175V132.54C38.2783 132.61 38.6328 132.646 39.0312 132.646C40.0273 132.646 40.7275 132.068 41.1318 130.914L41.4922 130L37.5898 120.279ZM58.042 133.437H56.1172V130H49.4551V133.437H47.5479V128.4H48.3389C49.0303 127.41 49.5781 126.215 49.9824 124.814C50.3926 123.408 50.6357 121.896 50.7119 120.279H56.6182V128.4H58.042V133.437ZM54.5879 128.4V121.861H52.4961C52.3848 123.068 52.1504 124.258 51.793 125.43C51.4414 126.602 51.0107 127.592 50.501 128.4H54.5879ZM68.4658 125.122C68.4658 126.71 68.0586 127.949 67.2441 128.84C66.4297 129.73 65.2959 130.176 63.8428 130.176C62.9346 130.176 62.1318 129.971 61.4346 129.561C60.7373 129.15 60.2012 128.562 59.8262 127.794C59.4512 127.026 59.2637 126.136 59.2637 125.122C59.2637 123.546 59.668 122.315 60.4766 121.431C61.2852 120.546 62.4248 120.104 63.8955 120.104C65.3018 120.104 66.415 120.558 67.2354 121.466C68.0557 122.368 68.4658 123.587 68.4658 125.122ZM61.3906 125.122C61.3906 127.366 62.2197 128.488 63.8779 128.488C65.5186 128.488 66.3389 127.366 66.3389 125.122C66.3389 122.901 65.5127 121.791 63.8604 121.791C62.9932 121.791 62.3633 122.078 61.9707 122.652C61.584 123.227 61.3906 124.05 61.3906 125.122ZM75.6377 124.999V120.279H77.5625V124.999L81.3066 120.279H83.4863L79.6631 124.981L83.8291 130H81.5527L77.5625 125.069V130H75.6377V125.069L71.6562 130H69.3887L73.5459 124.981L69.7314 120.279H71.9111L75.6377 124.999ZM87.3975 120.279V124.182H91.9766V120.279H94.042V130H91.9766V125.808H87.3975V130H85.332V120.279H87.3975ZM98.9814 120.279V125.263C98.9814 125.843 98.9346 126.695 98.8408 127.82L103.719 120.279H106.241V130H104.255V125.104C104.255 124.835 104.27 124.398 104.299 123.795C104.334 123.191 104.363 122.752 104.387 122.477L99.5264 130H97.0039V120.279H98.9814ZM115.215 120.279H117.482L113.466 124.964L117.825 130H115.452L111.251 125.069V130H109.186V120.279H111.251V124.999L115.215 120.279Z" fill="#666666"/>
<path d="M24.0148 21.2206C26.7679 21.2206 29.0082 18.9803 29.0082 16.2272C29.0082 13.4741 26.7679 11.2339 24.0148 11.2339C21.2617 11.2339 19.0215 13.4741 19.0215 16.2272C19.0215 18.9803 21.2617 21.2206 24.0148 21.2206ZM24.0148 14.0872C25.195 14.0872 26.1548 15.047 26.1548 16.2272C26.1548 17.4074 25.195 18.3672 24.0148 18.3672C22.8346 18.3672 21.8748 17.4074 21.8748 16.2272C21.8748 15.047 22.835 14.0872 24.0148 14.0872Z" fill="#B6B6B6"/>
<path d="M88.9297 40.4806C88.9297 43.2337 91.1699 45.474 93.923 45.474C96.6761 45.474 98.9163 43.2337 98.9163 40.4806C98.9163 37.7275 96.6761 35.4873 93.923 35.4873C91.1699 35.4873 88.9297 37.7275 88.9297 40.4806ZM93.923 38.3406C95.1032 38.3406 96.063 39.3004 96.063 40.4806C96.063 41.6608 95.1032 42.6206 93.923 42.6206C92.7428 42.6206 91.783 41.6608 91.783 40.4806C91.783 39.3004 92.7432 38.3406 93.923 38.3406Z" fill="#B6B6B6"/>
<path d="M99.629 24.976C100.521 24.976 101.244 24.2528 101.244 23.3607C101.244 22.4686 100.521 21.7454 99.629 21.7454C98.7369 21.7454 98.0137 22.4686 98.0137 23.3607C98.0137 24.2528 98.7369 24.976 99.629 24.976Z" fill="#B6B6B6"/>
<path d="M31.1485 30.6826C32.0407 30.6826 32.7639 29.9594 32.7639 29.0672C32.7639 28.1751 32.0407 27.4519 31.1485 27.4519C30.2564 27.4519 29.5332 28.1751 29.5332 29.0672C29.5332 29.9594 30.2564 30.6826 31.1485 30.6826Z" fill="#B6B6B6"/>
<path d="M83.8729 18.4301C84.1515 18.7087 84.5167 18.8481 84.8816 18.8481C85.2464 18.8481 85.6117 18.7087 85.8902 18.4301L87.5024 16.818L89.1145 18.4301C89.393 18.7087 89.7583 18.8481 90.1231 18.8481C90.488 18.8481 90.8532 18.7087 91.1318 18.4301C91.6889 17.873 91.6889 16.9699 91.1318 16.4128L89.5197 14.8007L91.1318 13.1886C91.6889 12.6314 91.6889 11.7284 91.1318 11.1713C90.5747 10.6141 89.6716 10.6141 89.1145 11.1713L87.5024 12.7834L85.8902 11.1713C85.3331 10.6141 84.43 10.6141 83.8729 11.1713C83.3158 11.7284 83.3158 12.6314 83.8729 13.1886L85.485 14.8007L83.8729 16.4128C83.3158 16.9699 83.3158 17.8727 83.8729 18.4301Z" fill="#B6B6B6"/>
<path d="M18.246 48.3901C18.5245 48.6686 18.8897 48.8081 19.2546 48.8081C19.6195 48.8081 19.9847 48.6686 20.2633 48.3901L21.8754 46.778L23.4875 48.3901C23.7661 48.6686 24.1313 48.8081 24.4962 48.8081C24.8611 48.8081 25.2263 48.6686 25.5048 48.3901C26.062 47.833 26.062 46.9299 25.5048 46.3728L23.8927 44.7607L25.5048 43.1485C26.062 42.5914 26.062 41.6883 25.5048 41.1312C24.9477 40.5741 24.0446 40.5741 23.4875 41.1312L21.8754 42.7433L20.2633 41.1312C19.7062 40.5741 18.8031 40.5741 18.246 41.1312C17.6888 41.6883 17.6888 42.5914 18.246 43.1485L19.8581 44.7607L18.246 46.3728C17.6888 46.9299 17.6888 47.8326 18.246 48.3901Z" fill="#B6B6B6"/>
<path d="M66.8153 49.0406C67.6033 49.0406 68.242 48.4018 68.242 47.6139C68.242 46.826 67.6033 46.1873 66.8153 46.1873C66.0274 46.1873 65.3887 46.826 65.3887 47.6139C65.3887 48.4018 66.0274 49.0406 66.8153 49.0406Z" fill="#B6B6B6"/>
<path d="M52.5497 49.0406C53.3376 49.0406 53.9764 48.4018 53.9764 47.6139C53.9764 46.826 53.3376 46.1873 52.5497 46.1873C51.7618 46.1873 51.123 46.826 51.123 47.6139C51.123 48.4018 51.7618 49.0406 52.5497 49.0406Z" fill="#B6B6B6"/>
<path d="M99.0579 70.7263C97.2481 69.3677 97.0962 67.1735 96.9207 64.6337C96.6461 60.674 96.3048 55.7477 88.3928 54.7583C84.3607 54.2583 80.3635 55.5498 77.1314 58.4017C74.445 60.7742 72.5479 64.0102 71.6641 67.5102L66.1026 64.9832V63.8323C66.1026 63.8191 66.0954 63.808 66.0951 63.7948C71.5553 61.1858 75.7065 56.3248 77.3907 50.4644C78.3395 50.4894 79.2129 50.2344 80.0754 49.6969C81.3989 48.8708 82.2949 47.5276 82.4704 46.1009C82.6473 44.6714 82.2043 43.238 81.2584 42.1665C80.6079 41.4322 79.7636 40.9125 78.8356 40.6579C78.8327 40.4071 78.8227 39.4955 78.8195 39.4006C78.8909 39.2294 78.9429 33.0416 78.9429 33.0416C79.2732 33.0024 79.5949 32.9424 79.8988 32.8372C80.9688 32.4681 81.7852 31.7101 82.3231 30.5859H82.3245C84.1806 26.7075 80.8639 21.2131 74.5631 16.983C75.0046 15.8652 75.0506 14.6461 74.648 13.5034C74.2035 12.2454 73.298 11.2353 72.0956 10.6597C70.8933 10.0815 69.5391 10.0091 68.2782 10.4521C67.1341 10.8562 66.2128 11.6559 65.6193 12.6995C58.374 10.4414 52.0139 11.301 50.1553 15.1794C49.7369 16.0532 49.6467 16.9663 49.8496 17.8504C43.7439 20.6421 40.398 25.92 40.4236 32.808L40.4418 35.1638C40.4557 36.497 40.491 38.9947 40.5174 39.1063C40.5171 39.127 40.5321 40.3062 40.5321 40.6546C39.6739 40.8872 38.8921 41.3484 38.2569 42.0061C37.3082 42.9912 36.812 44.2869 36.8609 45.6548C36.9137 47.1816 37.7804 48.6557 39.1764 49.5977C40.0584 50.1926 40.9429 50.4837 41.9042 50.4683C43.3965 55.92 47.0152 60.4949 51.8434 63.2727C51.843 63.2848 51.8366 63.2948 51.8366 63.3069V64.9829L40.4664 70.1503C35.2406 72.5257 31.8633 77.8339 31.8633 83.6715V95.4065C31.8633 96.1951 32.5014 96.8332 33.2899 96.8332H84.65C85.4385 96.8332 86.0766 96.1951 86.0766 95.4065V88.8378C86.7793 88.9263 87.4905 88.9865 88.2166 88.9865C94.5182 88.9865 101.2 84.9084 102.809 80.0824C103.46 78.1271 103.839 74.3126 99.0579 70.7263ZM69.2259 13.1442C69.7666 12.9548 70.3462 12.988 70.8602 13.232C71.7183 13.6439 72.1673 14.5545 72.0471 15.449C71.4633 15.1276 70.8648 14.8148 70.2442 14.5177C69.6297 14.2235 69.0165 13.9549 68.4056 13.7035C68.636 13.4613 68.9021 13.258 69.2259 13.1442ZM52.7272 16.4113C53.3696 15.0724 55.3744 14.2934 58.186 14.2934C61.1242 14.2934 64.9445 15.1433 69.0126 17.0911C76.9734 20.9056 81.0598 26.6152 79.749 29.3544C79.4872 29.9019 79.193 30.062 78.9661 30.1415C77.3055 30.7101 73.3668 28.7609 69.187 26.699C68.1602 26.1918 67.0834 25.6597 65.9574 25.1204C64.8525 24.5911 63.7575 24.0825 62.6957 23.5892C58.0883 21.4478 53.3261 19.2325 52.6505 17.3504C52.5393 17.0394 52.5614 16.758 52.7272 16.4113ZM51.2995 20.3211C53.3007 22.3644 57.0361 24.1049 61.4919 26.1765C62.5452 26.6655 63.6305 27.1698 64.7255 27.6952C65.8401 28.2287 66.9072 28.7555 67.9244 29.257C71.1622 30.8563 73.8515 32.1806 76.0889 32.7652V38.1598C71.8199 41.3698 66.9925 42.586 62.4296 41.5884C58.339 40.6953 54.9468 38.1027 53.1242 34.4761C52.9166 34.0638 52.5221 33.7767 52.0667 33.7071C51.6084 33.6333 51.1472 33.7906 50.8265 34.1223C48.9861 36.0169 46.2987 37.1554 43.3101 37.3419C43.3087 36.6536 43.3005 35.9042 43.2934 35.1363L43.2752 32.7969C43.2484 25.4446 47.5384 21.9635 51.2995 20.3211ZM44.3776 48.553C44.2956 48.1532 44.0459 47.8076 43.6921 47.6029C43.3383 47.3996 42.9132 47.3603 42.5248 47.4873C41.973 47.6753 41.463 47.7006 40.7721 47.2323C40.1397 46.8061 39.7328 46.1623 39.7103 45.5535C39.6893 44.9657 39.9025 44.4096 40.3095 43.9873C40.7165 43.5665 41.2625 43.3339 41.8489 43.3339C42.2348 43.3339 42.6193 43.1695 42.8882 42.8938C43.2845 42.4865 43.4068 42.1369 43.3822 40.1899C46.4342 40.0187 49.2658 39.0232 51.4846 37.3376C53.8183 40.9057 57.4976 43.4331 61.8208 44.3761C63.0691 44.6493 64.3299 44.7845 65.5936 44.7845C69.1421 44.7834 72.7006 43.7031 76.0129 41.6462C76.0671 42.2982 76.1973 42.6102 76.4859 42.902C76.7534 43.1738 77.1336 43.3339 77.5156 43.3339C78.1287 43.3339 78.7136 43.5971 79.1191 44.0569C79.5314 44.5223 79.7155 45.124 79.6388 45.7525C79.5664 46.3321 79.1651 46.9006 78.5659 47.2754C77.9639 47.6503 77.4542 47.7074 76.809 47.4802C76.4245 47.3393 75.9969 47.3799 75.6402 47.5775C75.2821 47.7769 75.0271 48.1207 74.9394 48.5209C73.5501 54.8992 68.8357 60.1097 62.6343 62.1188L62.0045 62.325C60.2308 62.9003 58.4182 62.9213 56.7658 62.3878C50.4577 60.358 45.7109 55.0565 44.3776 48.553ZM55.8912 65.1045C56.9723 65.453 58.0968 65.6256 59.2378 65.6256C60.4487 65.6256 61.676 65.4305 62.8854 65.0389L63.2492 64.9201V65.4473C63.2492 67.8073 61.3293 69.7273 58.9692 69.7273C56.6092 69.7273 54.6892 67.8073 54.6892 65.4473V64.6316C55.0901 64.7885 55.4778 64.9715 55.8912 65.1045ZM83.2222 93.9806H74.6622V86.8473C74.6622 86.0587 74.0241 85.4206 73.2356 85.4206C72.447 85.4206 71.8089 86.0587 71.8089 86.8473V93.9806H44.7022V86.8473C44.7022 86.0587 44.0641 85.4206 43.2755 85.4206C42.487 85.4206 41.8489 86.0587 41.8489 86.8473V93.9806H34.7155V83.6722C34.7155 78.9507 37.4366 74.6621 41.647 72.7479L52.2992 67.9068C53.3061 70.6264 55.9037 72.5806 58.9689 72.5806C62.0344 72.5806 64.6317 70.6264 65.6385 67.9065L71.1747 70.422C71.1348 70.9028 71.0956 71.384 71.0956 71.8673C71.0956 79.5709 76.2109 86.0975 83.2222 88.24V93.9806ZM100.101 79.1804C98.8877 82.8194 93.2228 86.1339 88.2156 86.1339C80.3493 86.1339 73.9489 79.7335 73.9489 71.8673C73.9489 67.5776 75.8449 63.3436 79.0203 60.5417C81.2663 58.5589 83.9509 57.5057 86.6983 57.5057C87.1441 57.5057 87.5914 57.5335 88.0387 57.5892C93.6212 58.2872 93.8109 61.0317 94.0742 64.8299C94.2693 67.6597 94.4907 70.8668 97.3469 73.0082C99.9007 74.9239 100.827 77.0015 100.101 79.1804Z" fill="#B6B6B6"/>
<path d="M93.9227 73.3523C91.5947 73.3523 89.7012 75.2458 89.7012 77.5738C89.7012 79.9003 91.5947 81.7939 93.9227 81.7939C96.2506 81.7939 98.1442 79.9003 98.1442 77.5738C98.1442 75.2458 96.251 73.3523 93.9227 73.3523ZM93.9227 78.9406C93.169 78.9406 92.5545 78.3274 92.5545 77.5738C92.5545 76.8202 93.169 76.2056 93.9227 76.2056C94.6763 76.2056 95.2908 76.8202 95.2908 77.5738C95.2908 78.3274 94.6763 78.9406 93.9227 78.9406Z" fill="#B6B6B6"/>
<path d="M85.3629 59.5732C83.3038 59.5732 81.6289 61.2478 81.6289 63.3072C81.6289 65.3666 83.3035 67.0411 85.3629 67.0411C87.4222 67.0411 89.0968 65.3666 89.0968 63.3072C89.0968 61.2478 87.4222 59.5732 85.3629 59.5732ZM85.3629 64.1878C84.8781 64.1878 84.4822 63.7923 84.4822 63.3072C84.4822 62.8221 84.8778 62.4266 85.3629 62.4266C85.8479 62.4266 86.2435 62.8221 86.2435 63.3072C86.2435 63.7923 85.8479 64.1878 85.3629 64.1878Z" fill="#B6B6B6"/>
<path d="M82.6769 71.1539C82.6769 69.0948 81.0023 67.4199 78.9429 67.4199C76.8835 67.4199 75.209 69.0945 75.209 71.1539C75.209 73.2133 76.8835 74.8878 78.9429 74.8878C81.0023 74.8878 82.6769 73.2133 82.6769 71.1539ZM78.9429 72.0345C78.4582 72.0345 78.0623 71.6389 78.0623 71.1539C78.0623 70.6688 78.4579 70.2733 78.9429 70.2733C79.428 70.2733 79.8235 70.6688 79.8235 71.1539C79.8235 71.6389 79.428 72.0345 78.9429 72.0345Z" fill="#B6B6B6"/>
<path d="M83.9351 76.6934C81.8761 76.6934 80.2012 78.3679 80.2012 80.4273C80.2012 82.4867 81.8757 84.1613 83.9351 84.1613C85.9945 84.1613 87.6691 82.4867 87.6691 80.4273C87.6691 78.3679 85.9945 76.6934 83.9351 76.6934ZM83.9351 81.3079C83.4504 81.3079 83.0545 80.9124 83.0545 80.4273C83.0545 79.9422 83.45 79.5467 83.9351 79.5467C84.4202 79.5467 84.8157 79.9422 84.8157 80.4273C84.8157 80.9124 84.4202 81.3079 83.9351 81.3079Z" fill="#B6B6B6"/>
<path d="M27.9005 61.7204C27.6358 61.4586 27.3669 61.1925 27.1051 60.9179C27.1048 60.9175 27.1044 60.9175 27.1044 60.9172C27.104 60.9172 27.104 60.9168 27.104 60.9164C26.0105 59.7726 25.2818 58.7304 25.2818 57.3665C25.2818 55.554 24.3413 55.0564 23.7799 54.9216C21.555 54.3588 18.9496 58.7251 17.5953 61.3651C16.7818 62.9519 15.8105 65.1729 15.8105 66.7429C15.8105 69.5114 17.3374 71.9071 19.5769 73.204L18.7516 91.5313C18.6846 93.0122 19.2032 94.4445 20.174 95.4589C21.0211 96.3463 22.1328 96.8338 23.303 96.8338C24.4733 96.8338 25.585 96.3463 26.4321 95.4589C27.4033 94.4445 27.9215 93.0125 27.8545 91.5313L27.0291 73.204C29.2687 71.9068 30.7959 69.511 30.7959 66.7429C30.7955 64.5876 29.2572 63.0636 27.9005 61.7204ZM22.5783 58.7693C22.8429 59.9634 23.424 60.9567 24.097 61.812C23.5927 62.1869 23.0951 62.3845 22.609 62.4041C21.9541 62.4012 21.2436 62.0991 20.6641 61.6797C21.3549 60.4524 22.0337 59.462 22.5783 58.7693ZM25.004 91.6593C25.0361 92.3655 24.8046 93.0332 24.3702 93.4872C24.1555 93.713 23.7949 93.9805 23.303 93.9805C22.8112 93.9805 22.4503 93.713 22.2359 93.4872C21.8011 93.0332 21.57 92.3655 21.6021 91.6593L22.3907 74.1434C22.6931 74.1805 22.9906 74.2358 23.303 74.2358C23.6155 74.2358 23.9129 74.1809 24.2154 74.1434L25.004 91.6593ZM23.3027 71.3825C20.7447 71.3825 18.6632 69.301 18.6632 66.7429C18.6632 66.3385 18.875 65.4786 19.3979 64.2391C20.4251 64.8965 21.4701 65.2589 22.5252 65.2589C22.5894 65.2589 22.6532 65.2574 22.7188 65.2546C23.8873 65.2096 25.0015 64.7506 26.0476 63.9014C27.0787 64.9254 27.9422 65.8235 27.9422 66.7426C27.9422 69.301 25.8607 71.3825 23.3027 71.3825Z" fill="#B6B6B6"/>
</svg>
